<?xml version="1.0" standalone="no"?>
<!DOCTYPE svg PUBLIC "-//W3C//DTD SVG 20010904//EN"
 "http://www.w3.org/TR/2001/REC-SVG-20010904/DTD/svg10.dtd">
<svg version="1.0" xmlns="http://www.w3.org/2000/svg"
 width="180" height="40" viewBox="0 0 567.000000 130.000000"
 preserveAspectRatio="xMidYMid meet">

<g transform="translate(0.000000,130.000000) scale(0.100000,-0.100000)"
fill="#000000" stroke="none">
<path d="M673 1176 c-61 -20 -127 -61 -159 -98 -33 -40 -70 -119 -79 -170 -4
-21 -11 -38 -16 -38 -4 0 -23 -13 -41 -29 -18 -15 -49 -36 -68 -45 -67 -31
-70 -44 -70 -319 0 -240 -1 -246 -21 -252 -25 -8 -59 -61 -59 -92 0 -20 5 -23
40 -23 29 0 42 5 50 20 6 11 20 20 31 20 12 0 23 -8 26 -20 4 -16 14 -20 44
-20 37 0 39 2 39 31 0 22 -10 41 -35 66 l-35 35 0 233 c0 201 2 234 16 246 13
11 17 10 25 -4 6 -9 23 -24 38 -32 28 -14 28 -17 33 -113 4 -77 10 -110 30
-154 30 -64 91 -129 148 -155 35 -16 40 -22 40 -55 0 -24 9 -47 26 -67 23 -28
31 -31 84 -31 77 0 110 25 117 91 5 42 9 48 44 63 51 23 133 114 154 173 9 26
19 90 22 141 6 89 7 93 34 107 15 8 32 23 38 32 8 14 12 15 25 4 14 -12 16
-45 16 -247 l0 -234 -35 -32 c-24 -22 -36 -43 -38 -63 -2 -28 1 -30 35 -33 29
-2 39 1 48 17 14 27 46 27 60 1 14 -26 90 -29 90 -4 0 29 -30 81 -55 94 l-24
13 -3 253 -3 253 -29 30 c-15 16 -40 32 -54 36 -14 3 -32 15 -40 26 -7 10 -26
26 -41 34 -22 11 -29 23 -34 54 -19 142 -153 259 -305 267 -40 2 -84 -2 -109
-10z m147 -28 c0 -20 -32 -48 -56 -48 -25 0 -54 24 -54 46 0 10 14 14 55 14
35 0 55 -4 55 -12z m-125 -30 c38 -60 113 -57 143 5 7 15 16 27 20 27 19 0
113 -63 137 -92 31 -36 59 -96 70 -145 l7 -33 -307 0 -307 0 6 35 c17 89 76
169 155 210 25 13 48 24 51 24 3 0 14 -14 25 -31z m-45 -322 c0 -40 4 -55 16
-60 29 -11 189 -7 202 6 7 7 12 34 12 60 l0 48 95 0 c78 0 95 -3 95 -15 0 -12
-15 -15 -76 -15 -56 0 -75 -3 -72 -12 3 -9 30 -14 76 -16 55 -2 72 -6 72 -17
0 -11 -13 -15 -50 -15 -38 0 -50 -4 -50 -15 0 -11 12 -15 50 -15 38 0 50 -4
50 -15 0 -10 -10 -15 -30 -15 -20 0 -30 -5 -30 -15 0 -10 10 -15 30 -15 l30 0
0 -76 c0 -74 -16 -164 -29 -164 -4 0 -13 16 -20 37 -19 53 -84 117 -144 144
-140 62 -308 -1 -369 -139 -18 -41 -21 -43 -31 -26 -6 10 -13 56 -15 102 l-5
82 77 0 c61 0 76 3 76 15 0 12 -15 15 -75 15 -68 0 -75 2 -75 20 0 18 7 20 56
20 73 0 70 24 -4 28 -37 2 -52 7 -52 18 0 9 11 14 36 14 45 0 42 24 -4 28 -28
3 -32 7 -32 33 l0 29 95 0 95 0 0 -54z m200 39 c0 -12 -16 -15 -85 -15 -69 0
-85 3 -85 15 0 12 16 15 85 15 69 0 85 -3 85 -15z m-420 -65 c0 -38 -4 -70 -9
-70 -17 0 -51 52 -51 76 0 24 31 64 50 64 6 0 10 -30 10 -70z m704 54 c36 -35
28 -91 -14 -114 -19 -10 -20 -7 -20 60 0 72 7 82 34 54z m-284 -49 c0 -12 -16
-15 -85 -15 -69 0 -85 3 -85 15 0 12 16 15 85 15 69 0 85 -3 85 -15z m-510 -5
c0 -5 -11 -20 -25 -34 l-25 -25 0 -236 c0 -150 -4 -235 -10 -235 -6 0 -10 88
-10 245 l0 246 25 24 c25 26 45 32 45 15z m894 -16 l26 -27 0 -243 c0 -156 -4
-244 -10 -244 -6 0 -10 85 -10 236 l0 236 -30 28 c-16 15 -30 31 -30 34 0 15
30 4 54 -20z m-395 -154 c80 -23 152 -101 171 -186 7 -31 4 -40 -20 -67 -15
-18 -46 -42 -67 -54 l-40 -23 -15 40 c-13 32 -23 40 -56 50 -49 13 -116 4
-135 -19 -8 -9 -18 -29 -23 -44 l-9 -28 -50 33 c-74 50 -89 76 -76 126 27 99
134 182 235 182 28 0 66 -4 85 -10z m-13 -275 c17 -13 11 -14 -61 -14 -72 0
-78 1 -61 14 11 8 38 15 61 15 23 0 50 -7 61 -15z m24 -60 c0 -12 -16 -15 -85
-15 -69 0 -85 3 -85 15 0 12 16 15 85 15 69 0 85 -3 85 -15z m0 -60 c0 -12
-16 -15 -85 -15 -69 0 -85 3 -85 15 0 12 16 15 85 15 69 0 85 -3 85 -15z
m-504 -27 c23 -29 25 -33 10 -36 -10 -2 -24 6 -32 17 -20 28 -69 28 -86 1 -13
-20 -48 -28 -48 -11 0 4 9 20 21 35 16 21 29 26 64 26 37 0 47 -5 71 -32z
m969 7 c14 -13 25 -29 25 -35 0 -18 -35 -11 -48 10 -8 13 -23 20 -42 20 -19 0
-34 -7 -42 -20 -13 -20 -48 -28 -48 -11 0 4 11 20 25 35 33 36 95 37 130 1z
m-475 -25 c0 -24 -140 -26 -148 -2 -3 9 16 12 72 12 43 0 76 -4 76 -10z"/>
<path d="M600 1050 c-31 -31 -27 -93 6 -119 35 -27 67 -26 100 3 37 31 39 90
5 117 -31 25 -86 24 -111 -1z m88 -16 c26 -18 28 -50 5 -76 -22 -25 -59 -23
-77 4 -21 30 -20 44 4 68 24 24 38 25 68 4z"/>
<path d="M815 1045 c-33 -33 -32 -70 4 -106 36 -36 73 -37 106 -4 32 31 34 86
5 115 -29 29 -84 27 -115 -5z m95 -15 c24 -24 25 -38 4 -68 -29 -41 -94 -19
-94 33 0 24 33 55 57 55 7 0 22 -9 33 -20z"/>
<path d="M1842 880 c-111 -23 -184 -112 -185 -225 0 -144 110 -235 285 -235
l69 0 -3 38 -3 37 -87 5 c-98 6 -131 22 -160 81 -37 72 -9 168 61 207 30 17
55 22 115 22 l77 0 -3 38 -3 37 -60 2 c-33 1 -79 -3 -103 -7z"/>
<path d="M2110 880 c0 -5 38 -68 85 -140 l85 -131 0 -94 0 -95 45 0 45 0 0 95
0 94 -91 141 -91 140 -39 0 c-21 0 -39 -4 -39 -10z"/>
<path d="M2463 878 c-5 -7 -31 -43 -56 -79 l-46 -66 24 -33 24 -32 65 100 c37
55 66 105 66 111 0 15 -65 14 -77 -1z"/>
<path d="M4270 655 l0 -235 40 0 40 0 0 235 0 235 -40 0 -40 0 0 -235z"/>
<path d="M5270 881 c0 -12 99 -291 137 -386 l28 -70 43 -3 c23 -2 42 0 42 5
-1 4 -38 109 -84 233 l-82 225 -42 3 c-24 2 -42 -1 -42 -7z"/>
<path d="M2652 848 l3 -33 113 -5 c121 -5 132 -10 132 -61 0 -44 -23 -54 -139
-59 l-106 -5 -3 -32 -3 -33 110 0 c63 0 121 -5 136 -12 33 -15 42 -51 21 -83
-15 -23 -21 -24 -139 -27 l-122 -3 0 -35 0 -35 110 -3 c171 -4 240 32 240 128
0 50 -26 93 -65 105 -16 5 -14 9 11 35 23 23 29 37 29 72 0 92 -48 118 -215
118 l-116 0 3 -32z"/>
<path d="M3150 845 l0 -35 170 0 170 0 0 35 0 35 -170 0 -170 0 0 -35z"/>
<path d="M3620 845 l0 -35 119 0 c105 0 121 -2 145 -21 33 -26 36 -79 6 -109
-18 -18 -33 -20 -145 -20 l-125 0 0 -120 0 -120 40 0 40 0 0 80 0 80 53 0 52
-1 55 -79 55 -80 48 0 48 0 -22 33 c-13 17 -41 56 -63 86 -29 41 -36 56 -25
59 31 11 89 80 90 108 3 87 -17 128 -74 155 -34 15 -66 19 -169 19 l-128 0 0
-35z"/>
<path d="M4610 649 l0 -230 38 3 37 3 3 57 3 58 154 164 c85 91 155 167 155
170 0 3 -21 6 -47 6 -47 0 -49 -1 -155 -107 l-108 -108 0 108 0 107 -40 0 -40
0 0 -231z"/>
<path d="M5218 765 c-5 -8 -75 -179 -135 -333 -4 -10 5 -13 38 -10 l43 3 49
115 c50 120 52 138 23 205 -6 16 -15 25 -18 20z"/>
<path d="M3150 655 l0 -35 155 0 155 0 0 35 0 35 -155 0 -155 0 0 -35z"/>
<path d="M4827 592 l-26 -27 57 -73 c57 -72 57 -72 105 -72 36 0 46 3 41 13
-10 15 -145 187 -148 187 -1 0 -14 -12 -29 -28z"/>
<path d="M3150 460 l0 -40 171 0 170 0 -3 38 -3 37 -167 3 -168 2 0 -40z"/>
</g>
</svg>
